<svg width="1088" height="682" viewBox="0 0 1088 682" fill="none" xmlns="http://www.w3.org/2000/svg">
<path d="M632.794 348C580.5 173 276.907 93 315 -68H2.38831L-50.6333 93C-55.4378 247.167 -90.5308 435.4 -79 525C-64.5865 637 163.282 723.275 359.637 624.5C508.73 549.5 680.5 875 998 485.5C751 654 686.986 529.352 632.794 348Z" fill="white"/>
<path d="M1084.15 396.661L1079.48 401.33C1076.27 400.823 1067.07 399.837 1057.36 403.194L1080.81 426.636C1084.16 416.934 1083.18 407.734 1082.67 404.521L1087.34 399.852C1088.22 398.97 1088.22 397.543 1087.34 396.661C1086.46 395.78 1085.03 395.78 1084.15 396.661Z" fill="white"/>
<path d="M1049.94 424.486C1047.3 427.124 1047.3 431.418 1049.94 434.056C1052.58 436.695 1056.87 436.695 1059.51 434.056C1062.15 431.418 1062.15 427.124 1059.51 424.486C1056.87 421.847 1052.58 421.847 1049.94 424.486Z" fill="white"/>
<path d="M1078.93 431.142L1052.86 405.069C1049.64 406.67 1046.47 408.815 1043.56 411.725C1036.52 418.772 1034.36 424.263 1031.64 431.215C1030.36 434.483 1028.89 438.239 1026.68 442.699L1041.3 457.316C1045.76 455.112 1049.52 453.639 1052.78 452.36C1059.74 449.635 1065.23 447.484 1072.28 440.437C1075.18 437.528 1077.33 434.359 1078.93 431.142ZM1062.7 437.247C1058.31 441.644 1051.15 441.644 1046.75 437.247C1042.36 432.849 1042.36 425.693 1046.75 421.295C1051.15 416.898 1058.31 416.898 1062.7 421.295C1067.1 425.693 1067.1 432.849 1062.7 437.247Z" fill="white"/>
<path d="M1019.64 451.603C1017.05 454.189 1014.79 463.495 1013.93 467.376C1013.77 468.129 1014 468.912 1014.54 469.456C1015.09 470 1015.87 470.229 1016.62 470.064C1020.5 469.213 1029.81 466.953 1032.4 464.364C1035.92 460.845 1035.92 455.122 1032.4 451.603C1028.88 448.084 1023.15 448.084 1019.64 451.603Z" fill="white"/>
<path d="M1011.34 440.029C1011.88 440.898 1012.98 441.312 1013.97 440.982C1014.58 440.876 1017.81 439.125 1022.64 440.688C1024.76 436.4 1026.18 432.771 1027.44 429.569C1027.82 428.584 1028.21 427.62 1028.59 426.666C1024.45 426.819 1020.42 428.487 1017.37 431.539L1011.66 437.247C1010.92 437.987 1010.79 439.138 1011.34 440.029Z" fill="white"/>
<path d="M1043.97 472.663C1044.86 473.212 1046.01 473.079 1046.75 472.339L1052.46 466.632C1055.51 463.58 1057.18 459.551 1057.33 455.407C1056.38 455.793 1055.42 456.174 1054.43 456.559C1051.23 457.815 1047.6 459.238 1043.31 461.356C1044.87 466.169 1043.11 469.487 1043.02 470.031C1042.69 471.001 1043.06 472.095 1043.97 472.663Z" fill="white"/>
</svg>
