<svg width="31" height="30" viewBox="0 0 31 30" fill="none" xmlns="http://www.w3.org/2000/svg">
<path fill-rule="evenodd" clip-rule="evenodd" d="M24.4686 26.3786C30.009 20.6471 31.4477 14.0246 28.785 6.51102C25.8 -0.281853 19.1667 -1.58529 8.88499 2.60071C-1.3967 6.7867 -2.75493 13.229 4.8103 21.9277C12.3755 30.6264 18.9283 32.11 24.4686 26.3786ZM20.7287 20.6286C24.582 16.6397 25.5797 12.0278 23.722 6.79293C21.6497 2.07345 17.034 1.16525 9.8749 4.06833C2.71583 6.97141 1.77171 11.4545 7.04255 17.5175C12.3134 23.5805 16.8754 24.6175 20.7287 20.6286Z" fill="#3E21DE"/>
<path fill-rule="evenodd" clip-rule="evenodd" d="M17.5366 15.6951C19.8665 13.2738 20.46 10.4648 19.3171 7.26824C18.0546 4.399 15.2504 3.83607 10.9045 5.57946C6.55864 7.32285 5.99505 10.05 9.21372 13.7608C12.4324 17.4717 15.2067 18.1165 17.5366 15.6951ZM15.1137 11.9358C16.1927 10.8026 16.4551 9.47616 15.9011 7.95636C15.2927 6.59085 13.9745 6.30849 11.9463 7.10928C9.91808 7.91007 9.6692 9.19797 11.1996 10.973C12.7301 12.748 14.0348 13.0689 15.1137 11.9358Z" fill="#3E21DE"/>
</svg>
