<svg width="57" height="56" viewBox="0 0 57 56" fill="none" xmlns="http://www.w3.org/2000/svg">
<g clip-path="url(#clip0)">
<circle cx="28.5" cy="28" r="26" fill="#E2DDFF" stroke="white" stroke-width="4"/>
<path fill-rule="evenodd" clip-rule="evenodd" d="M37.9686 39.1719C43.509 33.4405 44.9477 26.818 42.285 19.3044C39.3 12.5115 32.6667 11.208 22.385 15.394C12.1033 19.58 10.7451 26.0224 18.3103 34.7211C25.8755 43.4197 32.4283 44.9033 37.9686 39.1719ZM34.2287 33.4219C38.082 29.433 39.0797 24.8211 37.222 19.5863C35.1497 14.8668 30.534 13.9586 23.3749 16.8617C16.2158 19.7647 15.2717 24.2478 20.5425 30.3108C25.8134 36.3738 30.3754 37.4109 34.2287 33.4219Z" fill="#3E21DE"/>
<path fill-rule="evenodd" clip-rule="evenodd" d="M31.0366 28.4884C33.3665 26.0671 33.96 23.2581 32.8171 20.0615C31.5546 17.1923 28.7504 16.6293 24.4045 18.3727C20.0586 20.1161 19.495 22.8433 22.7137 26.5541C25.9324 30.265 28.7067 30.9097 31.0366 28.4884ZM28.6137 24.7291C29.6927 23.5959 29.9551 22.2694 29.4011 20.7496C28.7927 19.3841 27.4745 19.1018 25.4463 19.9026C23.4181 20.7033 23.1692 21.9912 24.6996 23.7663C26.2301 25.5413 27.5348 25.8622 28.6137 24.7291Z" fill="#3E21DE"/>
</g>
<defs>
<clipPath id="clip0">
<rect width="56" height="56" fill="white" transform="translate(0.5)"/>
</clipPath>
</defs>
</svg>
