<svg width="17" height="16" viewBox="0 0 17 16" fill="none" xmlns="http://www.w3.org/2000/svg">
<g opacity="1">
<path d="M13.3647 16H3.03128C1.46456 16 0.197998 14.701 0.197998 13.0941V2.90593C0.197998 1.29904 1.46456 0 3.03128 0H13.3647C14.9314 0 16.198 1.29904 16.198 2.90593V13.0941C16.198 14.701 14.9314 16 13.3647 16Z" fill="#FF26BE"/>
<path d="M13.1114 15.3161H3.28483C1.95171 15.3161 0.86499 14.2015 0.86499 12.8342V3.16591C0.86499 1.79861 1.95171 0.684021 3.28483 0.684021H13.105C14.4452 0.684021 15.5248 1.79861 15.5248 3.16591V12.8276C15.5312 14.2015 14.4445 15.3161 13.1114 15.3161Z" fill="#2E001F"/>
<path d="M6.5244 7.48693L8.39128 11.1654C8.42456 11.2199 8.40472 11.2751 8.35096 11.2751H7.19064C7.11704 11.2751 7.08376 11.2547 7.05048 11.1865C6.6236 10.2839 6.19032 9.38133 5.7436 8.4105H5.73016C5.33016 9.32685 4.88984 10.2911 4.4636 11.1937C4.43032 11.2482 4.39704 11.2692 4.34328 11.2692H3.2444C3.17784 11.2692 3.1708 11.2147 3.20472 11.1733L5.03128 7.60377L3.26488 3.99351C3.22456 3.93903 3.26488 3.89768 3.30456 3.89768H4.45144C4.518 3.89768 4.54488 3.91146 4.57112 3.97316C4.99096 4.87573 5.41784 5.80586 5.81784 6.71499H5.83128C6.21784 5.81243 6.64472 4.87573 7.05816 3.97973C7.09144 3.92525 7.11128 3.89111 7.17848 3.89111H8.25176C8.30488 3.89111 8.32536 3.93247 8.29208 3.98695L6.5244 7.48693ZM8.71832 8.60151C8.71832 7.0084 9.75192 5.76385 11.3916 5.76385C11.5318 5.76385 11.6047 5.76385 11.7385 5.77764V3.96594C11.7385 3.92459 11.7718 3.89768 11.805 3.89768H12.8585C12.9116 3.89768 12.925 3.91803 12.925 3.95216V10.2294C12.925 10.4139 12.925 10.6462 12.9583 10.8996C12.9583 10.941 12.9449 10.9541 12.9052 10.9751C12.3452 11.2488 11.7583 11.3716 11.1983 11.3716C9.75128 11.3775 8.71768 10.4618 8.71832 8.60151ZM11.7378 6.85152C11.6444 6.81017 11.5113 6.78326 11.3513 6.78326C10.511 6.78326 9.92472 7.44623 9.92472 8.54769C9.92472 9.80602 10.525 10.3121 11.2783 10.3121C11.4383 10.3121 11.6118 10.2918 11.7385 10.2366V6.85152H11.7378Z" fill="#FFD9F2"/>
</g>
</svg>
