<svg width="24" height="24" viewBox="0 0 24 24" fill="none" xmlns="http://www.w3.org/2000/svg">
<path fill-rule="evenodd" clip-rule="evenodd" d="M12.0003 15.5C11.7443 15.5 11.4883 15.402 11.2933 15.207L7.29325 11.207C6.90225 10.816 6.90225 10.184 7.29325 9.79301C7.68425 9.40201 8.31625 9.40201 8.70725 9.79301L12.0123 13.098L15.3053 9.91801C15.7043 9.53501 16.3353 9.54601 16.7193 9.94301C17.1033 10.34 17.0923 10.974 16.6953 11.357L12.6953 15.219C12.5003 15.407 12.2503 15.5 12.0003 15.5Z" fill="white"/>
<mask id="mask0" mask-type="alpha" maskUnits="userSpaceOnUse" x="7" y="9" width="11" height="7">
<path fill-rule="evenodd" clip-rule="evenodd" d="M12.0003 15.5C11.7443 15.5 11.4883 15.402 11.2933 15.207L7.29325 11.207C6.90225 10.816 6.90225 10.184 7.29325 9.79301C7.68425 9.40201 8.31625 9.40201 8.70725 9.79301L12.0123 13.098L15.3053 9.91801C15.7043 9.53501 16.3353 9.54601 16.7193 9.94301C17.1033 10.34 17.0923 10.974 16.6953 11.357L12.6953 15.219C12.5003 15.407 12.2503 15.5 12.0003 15.5Z" fill="white"/>
</mask>
<g mask="url(#mask0)">
<rect width="24" height="24" fill="white"/>
</g>
</svg>
