<svg width="15" height="15" viewBox="0 0 15 15" fill="none" xmlns="http://www.w3.org/2000/svg">
<path fill-rule="evenodd" clip-rule="evenodd" d="M7.50007 9.99999C7.35757 9.99999 7.21569 9.95186 7.10007 9.85499L3.35007 6.72999C3.08507 6.50936 3.04882 6.11499 3.27007 5.84999C3.49069 5.58499 3.88444 5.54936 4.15007 5.76999L7.50694 8.56749L10.8582 5.87061C11.1269 5.65436 11.5207 5.69686 11.7369 5.96561C11.9532 6.23436 11.9107 6.62749 11.6419 6.84436L7.89194 9.86186C7.77757 9.95374 7.63882 9.99999 7.50007 9.99999" fill="#231F20"/>
<mask id="mask0" mask-type="alpha" maskUnits="userSpaceOnUse" x="3" y="5" width="9" height="5">
<path fill-rule="evenodd" clip-rule="evenodd" d="M7.50007 9.99999C7.35757 9.99999 7.21569 9.95186 7.10007 9.85499L3.35007 6.72999C3.08507 6.50936 3.04882 6.11499 3.27007 5.84999C3.49069 5.58499 3.88444 5.54936 4.15007 5.76999L7.50694 8.56749L10.8582 5.87061C11.1269 5.65436 11.5207 5.69686 11.7369 5.96561C11.9532 6.23436 11.9107 6.62749 11.6419 6.84436L7.89194 9.86186C7.77757 9.95374 7.63882 9.99999 7.50007 9.99999" fill="white"/>
</mask>
<g mask="url(#mask0)">
<rect width="15" height="15" fill="#8579A8"/>
</g>
</svg>
