<svg width="16" height="17" viewBox="0 0 16 17" fill="none" xmlns="http://www.w3.org/2000/svg">
<path fill-rule="evenodd" clip-rule="evenodd" d="M3.33366 9.16665H11.2437L8.82166 12.0733C8.58566 12.356 8.62433 12.7766 8.90699 13.012C9.19033 13.248 9.61033 13.2093 9.84633 12.9266L13.1797 8.92665C13.2057 8.89531 13.2183 8.85865 13.2377 8.82398C13.2537 8.79598 13.273 8.77198 13.285 8.74131C13.315 8.66465 13.333 8.58398 13.333 8.50265C13.333 8.50198 13.3337 8.50065 13.3337 8.49998C13.3337 8.49931 13.333 8.49798 13.333 8.49731C13.333 8.41598 13.315 8.33531 13.285 8.25865C13.273 8.22798 13.2537 8.20398 13.2377 8.17598C13.2183 8.14131 13.2057 8.10465 13.1797 8.07331L9.84633 4.07331C9.71366 3.91531 9.52433 3.83331 9.33366 3.83331C9.18299 3.83331 9.03166 3.88398 8.90699 3.98798C8.62433 4.22331 8.58566 4.64398 8.82166 4.92665L11.2437 7.83331H3.33366C2.96566 7.83331 2.66699 8.13198 2.66699 8.49998C2.66699 8.86798 2.96566 9.16665 3.33366 9.16665Z" fill="#BBAFDD"/>
<mask id="mask0" mask-type="alpha" maskUnits="userSpaceOnUse" x="2" y="3" width="12" height="11">
<path fill-rule="evenodd" clip-rule="evenodd" d="M3.33366 9.16665H11.2437L8.82166 12.0733C8.58566 12.356 8.62433 12.7766 8.90699 13.012C9.19033 13.248 9.61033 13.2093 9.84633 12.9266L13.1797 8.92665C13.2057 8.89531 13.2183 8.85865 13.2377 8.82398C13.2537 8.79598 13.273 8.77198 13.285 8.74131C13.315 8.66465 13.333 8.58398 13.333 8.50265C13.333 8.50198 13.3337 8.50065 13.3337 8.49998C13.3337 8.49931 13.333 8.49798 13.333 8.49731C13.333 8.41598 13.315 8.33531 13.285 8.25865C13.273 8.22798 13.2537 8.20398 13.2377 8.17598C13.2183 8.14131 13.2057 8.10465 13.1797 8.07331L9.84633 4.07331C9.71366 3.91531 9.52433 3.83331 9.33366 3.83331C9.18299 3.83331 9.03166 3.88398 8.90699 3.98798C8.62433 4.22331 8.58566 4.64398 8.82166 4.92665L11.2437 7.83331H3.33366C2.96566 7.83331 2.66699 8.13198 2.66699 8.49998C2.66699 8.86798 2.96566 9.16665 3.33366 9.16665Z" fill="white"/>
</mask>
<g mask="url(#mask0)">
<rect y="0.5" width="16" height="16" fill="#BBAFDD"/>
</g>
</svg>
