<svg width="16" height="16" viewBox="0 0 16 16" fill="none" xmlns="http://www.w3.org/2000/svg">
<path fill-rule="evenodd" clip-rule="evenodd" d="M6.57542 12C6.39142 12 6.21542 11.924 6.08942 11.79L2.84743 8.33731C2.59476 8.06931 2.60876 7.64731 2.87676 7.39531C3.14543 7.14331 3.56743 7.15664 3.81876 7.42464L6.56876 10.352L12.1741 4.21731C12.4234 3.94464 12.8448 3.92664 13.1168 4.17464C13.3881 4.42264 13.4068 4.84464 13.1588 5.11597L7.06742 11.7826C6.94276 11.92 6.76542 11.9986 6.58009 12H6.57542Z" fill="#231F20"/>
<mask id="mask0" mask-type="alpha" maskUnits="userSpaceOnUse" x="2" y="4" width="12" height="8">
<path fill-rule="evenodd" clip-rule="evenodd" d="M6.57542 12C6.39142 12 6.21542 11.924 6.08942 11.79L2.84743 8.33731C2.59476 8.06931 2.60876 7.64731 2.87676 7.39531C3.14543 7.14331 3.56743 7.15664 3.81876 7.42464L6.56876 10.352L12.1741 4.21731C12.4234 3.94464 12.8448 3.92664 13.1168 4.17464C13.3881 4.42264 13.4068 4.84464 13.1588 5.11597L7.06742 11.7826C6.94276 11.92 6.76542 11.9986 6.58009 12H6.57542Z" fill="white"/>
</mask>
<g mask="url(#mask0)">
<rect width="16" height="16" fill="white"/>
</g>
</svg>
