<svg width="16" height="16" viewBox="0 0 16 16" fill="none" xmlns="http://www.w3.org/2000/svg">
<path fill-rule="evenodd" clip-rule="evenodd" d="M6.57542 12C6.39142 12 6.21542 11.924 6.08942 11.79L2.84743 8.33737C2.59476 8.06937 2.60876 7.64737 2.87676 7.39537C3.14543 7.14337 3.56743 7.1567 3.81876 7.4247L6.56876 10.352L12.1741 4.21737C12.4234 3.9447 12.8448 3.9267 13.1168 4.1747C13.3881 4.4227 13.4068 4.8447 13.1588 5.11603L7.06742 11.7827C6.94276 11.92 6.76542 11.9987 6.58009 12H6.57542Z" fill="#ABABAB"/>
<mask id="mask0" mask-type="alpha" maskUnits="userSpaceOnUse" x="2" y="4" width="12" height="8">
<path fill-rule="evenodd" clip-rule="evenodd" d="M6.57542 12C6.39142 12 6.21542 11.924 6.08942 11.79L2.84743 8.33737C2.59476 8.06937 2.60876 7.64737 2.87676 7.39537C3.14543 7.14337 3.56743 7.1567 3.81876 7.4247L6.56876 10.352L12.1741 4.21737C12.4234 3.9447 12.8448 3.9267 13.1168 4.1747C13.3881 4.4227 13.4068 4.8447 13.1588 5.11603L7.06742 11.7827C6.94276 11.92 6.76542 11.9987 6.58009 12H6.57542Z" fill="white"/>
</mask>
<g mask="url(#mask0)">
<rect width="16" height="16" fill="#ABABAB"/>
</g>
</svg>
