<svg width="25" height="24" viewBox="0 0 25 24" fill="none" xmlns="http://www.w3.org/2000/svg">
<path fill-rule="evenodd" clip-rule="evenodd" d="M12.4999 12.0001C12.2729 12.0001 12.0449 11.9231 11.8599 11.7681L5.85989 6.76813C5.43589 6.41413 5.37889 5.78413 5.73189 5.36013C6.08589 4.93513 6.71489 4.87913 7.13989 5.23213L12.5109 9.70713L17.8729 5.39313C18.3029 5.04713 18.9339 5.11513 19.2789 5.54513C19.6259 5.97513 19.5569 6.60413 19.1269 6.95113L13.1269 11.7791C12.9439 11.9261 12.7219 12.0001 12.4999 12.0001ZM12.511 16.7076L17.873 12.3926C18.303 12.0476 18.934 12.1156 19.279 12.5446C19.625 12.9756 19.557 13.6046 19.127 13.9516L13.127 18.7796C12.944 18.9266 12.722 18.9996 12.5 18.9996C12.272 18.9996 12.045 18.9226 11.86 18.7676L5.85999 13.7676C5.43499 13.4146 5.37799 12.7846 5.73199 12.3596C6.08499 11.9356 6.71499 11.8776 7.13999 12.2316L12.511 16.7076Z" fill="#231F20"/>
<mask id="mask0" mask-type="alpha" maskUnits="userSpaceOnUse" x="5" y="5" width="15" height="14">
<path fill-rule="evenodd" clip-rule="evenodd" d="M12.4999 12.0001C12.2729 12.0001 12.0449 11.9231 11.8599 11.7681L5.85989 6.76813C5.43589 6.41413 5.37889 5.78413 5.73189 5.36013C6.08589 4.93513 6.71489 4.87913 7.13989 5.23213L12.5109 9.70713L17.8729 5.39313C18.3029 5.04713 18.9339 5.11513 19.2789 5.54513C19.6259 5.97513 19.5569 6.60413 19.1269 6.95113L13.1269 11.7791C12.9439 11.9261 12.7219 12.0001 12.4999 12.0001ZM12.511 16.7076L17.873 12.3926C18.303 12.0476 18.934 12.1156 19.279 12.5446C19.625 12.9756 19.557 13.6046 19.127 13.9516L13.127 18.7796C12.944 18.9266 12.722 18.9996 12.5 18.9996C12.272 18.9996 12.045 18.9226 11.86 18.7676L5.85999 13.7676C5.43499 13.4146 5.37799 12.7846 5.73199 12.3596C6.08499 11.9356 6.71499 11.8776 7.13999 12.2316L12.511 16.7076Z" fill="white"/>
</mask>
<g mask="url(#mask0)">
<rect x="0.5" width="24" height="24" fill="#DEDEDE"/>
</g>
</svg>
