<svg width="25" height="24" viewBox="0 0 25 24" fill="none" xmlns="http://www.w3.org/2000/svg">
<path fill-rule="evenodd" clip-rule="evenodd" d="M11.5 8C11.5 7.448 11.948 7 12.5 7C13.052 7 13.5 7.448 13.5 8V13C13.5 13.552 13.052 14 12.5 14C11.948 14 11.5 13.552 11.5 13V8ZM11.5 16C11.5 15.448 11.948 15 12.5 15C13.052 15 13.5 15.448 13.5 16C13.5 16.552 13.052 17 12.5 17C11.948 17 11.5 16.552 11.5 16ZM12.5 20C8.089 20 4.5 16.411 4.5 12C4.5 7.589 8.089 4 12.5 4C16.911 4 20.5 7.589 20.5 12C20.5 16.411 16.911 20 12.5 20ZM12.5 2C6.977 2 2.5 6.477 2.5 12C2.5 17.523 6.977 22 12.5 22C18.023 22 22.5 17.523 22.5 12C22.5 6.477 18.023 2 12.5 2Z" fill="#231F20"/>
<mask id="mask0" mask-type="alpha" maskUnits="userSpaceOnUse" x="2" y="2" width="21" height="20">
<path fill-rule="evenodd" clip-rule="evenodd" d="M11.5 8C11.5 7.448 11.948 7 12.5 7C13.052 7 13.5 7.448 13.5 8V13C13.5 13.552 13.052 14 12.5 14C11.948 14 11.5 13.552 11.5 13V8ZM11.5 16C11.5 15.448 11.948 15 12.5 15C13.052 15 13.5 15.448 13.5 16C13.5 16.552 13.052 17 12.5 17C11.948 17 11.5 16.552 11.5 16ZM12.5 20C8.089 20 4.5 16.411 4.5 12C4.5 7.589 8.089 4 12.5 4C16.911 4 20.5 7.589 20.5 12C20.5 16.411 16.911 20 12.5 20ZM12.5 2C6.977 2 2.5 6.477 2.5 12C2.5 17.523 6.977 22 12.5 22C18.023 22 22.5 17.523 22.5 12C22.5 6.477 18.023 2 12.5 2Z" fill="white"/>
</mask>
<g mask="url(#mask0)">
<rect x="0.5" width="24" height="24" fill="#FF5F5F"/>
</g>
</svg>
