<svg width="16" height="16" viewBox="0 0 16 16" fill="none" xmlns="http://www.w3.org/2000/svg">
<path d="M5.43809 16.0001C6.8575 16.0001 8.00949 14.8054 8.00949 13.3334V10.6667H5.43809C4.01868 10.6667 2.8667 11.8614 2.8667 13.3334C2.8667 14.8054 4.01868 16.0001 5.43809 16.0001Z" fill="#0ACF83"/>
<path d="M2.8667 8.00009C2.8667 6.52809 4.01869 5.33342 5.4381 5.33342H8.0095V10.6668H5.4381C4.01869 10.6668 2.8667 9.47209 2.8667 8.00009Z" fill="#A259FF"/>
<path d="M2.86719 2.66695C2.86719 1.19495 4.01917 0.000278473 5.43859 0.000278473L8.00999 0.000278473V5.33361H5.43859C4.01917 5.33361 2.86719 4.13895 2.86719 2.66695Z" fill="#F24E1E"/>
<path d="M8.00928 0H10.5807C12.0001 0 13.1521 1.19467 13.1521 2.66667C13.1521 4.13867 12.0001 5.33333 10.5807 5.33333H8.00928V0Z" fill="#FF7262"/>
<path d="M13.1526 8.00009C13.1526 9.47209 12.0006 10.6668 10.5812 10.6668C9.16175 10.6668 8.00977 9.47209 8.00977 8.00009C8.00977 6.52809 9.16175 5.33342 10.5812 5.33342C12.0006 5.33342 13.1526 6.52809 13.1526 8.00009Z" fill="#1ABCFE"/>
</svg>
