<svg width="16" height="16" viewBox="0 0 16 16" fill="none" xmlns="http://www.w3.org/2000/svg">
<path fill-rule="evenodd" clip-rule="evenodd" d="M3.24014 5.70531L7.99932 16L0 5.70531H3.24014Z" fill="#EA6C00"/>
<path fill-rule="evenodd" clip-rule="evenodd" d="M12.7599 5.70531L8.00068 16L16 5.70531H12.7599Z" fill="#EA6C00"/>
<path fill-rule="evenodd" clip-rule="evenodd" d="M3.23975 5.70531H12.7581L7.99893 16L3.23975 5.70531Z" fill="#FDAD00"/>
<path fill-rule="evenodd" clip-rule="evenodd" d="M7.99893 0L3.49024 0.526714L3.23975 5.70532L7.99893 0Z" fill="#FDD231"/>
<path fill-rule="evenodd" clip-rule="evenodd" d="M7.99912 0L12.5078 0.526714L12.7583 5.70532L7.99912 0Z" fill="#FDD231"/>
<path fill-rule="evenodd" clip-rule="evenodd" d="M16 5.70537L12.5094 0.526768L12.7599 5.70537H16Z" fill="#FDAD00"/>
<path fill-rule="evenodd" clip-rule="evenodd" d="M0 5.70537L3.49063 0.526768L3.24014 5.70537H0Z" fill="#FDAD00"/>
<path fill-rule="evenodd" clip-rule="evenodd" d="M7.99893 0L3.23975 5.70532H12.7581L7.99893 0Z" fill="#FEEEB7"/>
</svg>
