<svg width="24" height="24" viewBox="0 0 24 24" fill="none" xmlns="http://www.w3.org/2000/svg">
<path fill-rule="evenodd" clip-rule="evenodd" d="M8.01369 14H15.9087L11.9977 9.178L8.01369 14ZM16.2127 16H7.78669C7.11469 16 6.50669 15.598 6.20169 14.951C5.85669 14.218 5.95669 13.351 6.45969 12.741L10.6737 7.642C11.3457 6.825 12.6547 6.825 13.3257 7.642L17.5387 12.74C18.0427 13.351 18.1437 14.218 17.7977 14.951C17.4927 15.598 16.8857 16 16.2127 16Z" fill="#231F20"/>
<mask id="mask0" mask-type="alpha" maskUnits="userSpaceOnUse" x="5" y="7" width="14" height="9">
<path fill-rule="evenodd" clip-rule="evenodd" d="M8.01369 14H15.9087L11.9977 9.178L8.01369 14ZM16.2127 16H7.78669C7.11469 16 6.50669 15.598 6.20169 14.951C5.85669 14.218 5.95669 13.351 6.45969 12.741L10.6737 7.642C11.3457 6.825 12.6547 6.825 13.3257 7.642L17.5387 12.74C18.0427 13.351 18.1437 14.218 17.7977 14.951C17.4927 15.598 16.8857 16 16.2127 16Z" fill="white"/>
</mask>
<g mask="url(#mask0)">
<rect width="24" height="24" fill="#BBAFDD"/>
</g>
</svg>
