<svg width="24" height="24" viewBox="0 0 24 24" fill="none" xmlns="http://www.w3.org/2000/svg">
<path fill-rule="evenodd" clip-rule="evenodd" d="M16.6162 6.21284C16.1822 5.87084 15.5542 5.94884 15.2132 6.38384L8.15821 15.3918L4.77921 11.1948C4.43121 10.7658 3.80321 10.6958 3.37321 11.0428C2.94221 11.3898 2.87521 12.0198 3.22021 12.4488L7.38921 17.6268C7.58021 17.8628 7.86621 17.9998 8.16921 17.9998H8.17621C8.48021 17.9978 8.76821 17.8568 8.95621 17.6158L16.7872 7.61584C17.1282 7.18184 17.0522 6.55284 16.6162 6.21284ZM21.6162 6.21284C21.1812 5.87084 20.5542 5.94884 20.2132 6.38384L13.1582 15.3918L12.5542 14.6428L11.2892 16.2598L12.3892 17.6268C12.5802 17.8628 12.8662 17.9998 13.1692 17.9998H13.1762C13.4802 17.9978 13.7682 17.8568 13.9562 17.6158L21.7872 7.61584C22.1282 7.18184 22.0522 6.55284 21.6162 6.21284ZM9.97991 11.4444L8.71291 13.0604L8.22091 12.4494C7.87491 12.0194 7.94191 11.3894 8.37291 11.0424C8.80391 10.6964 9.43291 10.7654 9.77891 11.1954L9.97991 11.4444Z" fill="#231F20"/>
<mask id="mask0" mask-type="alpha" maskUnits="userSpaceOnUse" x="2" y="5" width="21" height="13">
<path fill-rule="evenodd" clip-rule="evenodd" d="M16.6162 6.21284C16.1822 5.87084 15.5542 5.94884 15.2132 6.38384L8.15821 15.3918L4.77921 11.1948C4.43121 10.7658 3.80321 10.6958 3.37321 11.0428C2.94221 11.3898 2.87521 12.0198 3.22021 12.4488L7.38921 17.6268C7.58021 17.8628 7.86621 17.9998 8.16921 17.9998H8.17621C8.48021 17.9978 8.76821 17.8568 8.95621 17.6158L16.7872 7.61584C17.1282 7.18184 17.0522 6.55284 16.6162 6.21284ZM21.6162 6.21284C21.1812 5.87084 20.5542 5.94884 20.2132 6.38384L13.1582 15.3918L12.5542 14.6428L11.2892 16.2598L12.3892 17.6268C12.5802 17.8628 12.8662 17.9998 13.1692 17.9998H13.1762C13.4802 17.9978 13.7682 17.8568 13.9562 17.6158L21.7872 7.61584C22.1282 7.18184 22.0522 6.55284 21.6162 6.21284ZM9.97991 11.4444L8.71291 13.0604L8.22091 12.4494C7.87491 12.0194 7.94191 11.3894 8.37291 11.0424C8.80391 10.6964 9.43291 10.7654 9.77891 11.1954L9.97991 11.4444Z" fill="white"/>
</mask>
<g mask="url(#mask0)">
<rect width="24" height="24" fill="#48B967"/>
</g>
</svg>
