<svg width="180" height="32" viewBox="0 0 180 32" fill="none" xmlns="http://www.w3.org/2000/svg">
<g clip-path="url(#clip0)">
<path d="M32.0384 17.5452C27.6384 25.7452 18.1934 24.0833 14.11 22.25C11.51 15.65 21.86 11 27.36 9.5L32.0384 17.5452Z" fill="url(#paint0_linear)"/>
<path fill-rule="evenodd" clip-rule="evenodd" d="M32.0367 17.5468C32.0855 17.0378 32.1105 16.5218 32.1105 16C32.1105 7.16344 24.947 0 16.1105 0C7.27392 0 0.110474 7.16344 0.110474 16C0.110474 24.8366 7.27392 32 16.1105 32C16.8029 32 17.4851 31.956 18.1544 31.8707C16.9673 30.2104 16.2687 28.1769 16.2687 25.9802C16.2687 20.3808 20.8079 15.8416 26.4073 15.8416C28.4901 15.8416 30.4263 16.4697 32.0367 17.5468Z" fill="url(#paint1_linear)"/>
<path d="M48.3883 29.0555H50.9994C51.166 29.0555 51.2771 28.9444 51.2771 28.7777V21.25C52.166 22.3888 53.4994 23.0277 55.1938 23.0277C59.1383 23.0277 61.7771 20.2777 61.7771 16.2222C61.7771 12.1666 59.1383 9.38885 55.1938 9.38885C53.3327 9.38885 51.916 10.1388 50.9994 11.4722L50.5827 9.9444C50.5271 9.80552 50.416 9.66663 50.2216 9.66663H48.3883C48.2216 9.66663 48.1105 9.77774 48.1105 9.97218V28.7777C48.1105 28.9444 48.2216 29.0555 48.3883 29.0555ZM51.3049 16.1944C51.3049 14.0277 52.8049 12.5277 54.9994 12.5277C57.166 12.5277 58.6383 14.0277 58.6383 16.2222C58.6383 18.4166 57.166 19.8611 54.9994 19.8611C52.8049 19.8611 51.3049 18.3888 51.3049 16.1944Z" fill="white"/>
<path d="M66.612 2.94441C66.612 2.77774 66.5009 2.66663 66.3342 2.66663H63.7231C63.5564 2.66663 63.4453 2.77774 63.4453 2.94441L63.4731 22.4444C63.4731 22.6111 63.5842 22.7222 63.7231 22.7222H66.362C66.5009 22.7222 66.612 22.6111 66.612 22.4444V2.94441Z" fill="white"/>
<path d="M78.594 22.4444C78.6495 22.6111 78.7606 22.7222 78.9273 22.7222H80.9829C81.1495 22.7222 81.2606 22.6111 81.2606 22.4444V9.97218C81.2606 9.80551 81.1495 9.6944 80.9829 9.6944H78.3995C78.2051 9.6944 78.094 9.80551 78.094 9.97218L78.1218 16.0555C77.9829 18.7222 76.5662 20.0277 74.9829 20.0555C73.2329 20.0555 72.2051 19.0277 72.2051 16.6388V9.97218C72.2051 9.80551 72.094 9.6944 71.9273 9.6944H69.3162C69.1495 9.6944 69.0384 9.80551 69.0384 9.97218V17.2222C69.0384 20.9166 71.0106 23.0277 73.9273 23.0555C75.844 23.0555 77.3162 22.25 78.2884 20.9722L78.594 22.4444Z" fill="white"/>
<path d="M89.4742 9.38885C85.5297 9.38885 82.8909 12.1666 82.8909 16.2222C82.8909 20.2777 85.5297 23 89.4742 23.0277C91.2242 23.0277 92.5853 22.3611 93.4742 21.2222V22.2777C93.4742 24.6944 92.0853 26.1666 89.5297 26.1666C87.9464 26.1111 86.6131 25.6111 85.8075 25.1388C85.752 25.1111 85.6964 25.0833 85.6409 25.0833C85.5575 25.0833 85.4742 25.1388 85.4464 25.2222L84.3075 27.5277C84.2242 27.6944 84.252 27.8611 84.4186 27.9444C85.502 28.5833 87.3075 29.3055 89.6964 29.3333C93.8075 29.3333 96.6686 26.5833 96.6409 22.3611L96.6131 9.97218C96.6131 9.80551 96.502 9.6944 96.3353 9.6944H94.5297C94.3909 9.6944 94.2797 9.74996 94.1964 9.97218L93.7242 11.5277C92.8075 10.1666 91.3631 9.38885 89.4742 9.38885ZM86.0575 16.1944C86.0575 14 87.502 12.5277 89.6686 12.5277C91.9186 12.5277 93.4464 14 93.4464 16.1944C93.4464 18.3888 91.9186 19.8611 89.6686 19.8611C87.502 19.8611 86.0575 18.3888 86.0575 16.1944Z" fill="white"/>
<path d="M102.252 9.9444C102.252 9.77774 102.141 9.6944 101.974 9.6944H99.3911C99.1966 9.66663 99.0855 9.80551 99.0855 9.97218V22.4444C99.0855 22.6111 99.1966 22.7222 99.3633 22.7222H101.974C102.141 22.7222 102.252 22.6111 102.252 22.4444V9.9444ZM98.6133 5.24996C98.6133 6.47218 99.4466 7.30552 100.669 7.30552C101.919 7.30552 102.697 6.47218 102.697 5.24996C102.697 4.02774 101.919 3.22218 100.669 3.22218C99.4466 3.22218 98.6133 4.02774 98.6133 5.24996Z" fill="white"/>
<path d="M104.735 22.4444C104.735 22.6111 104.846 22.7222 105.013 22.7222H107.624C107.763 22.7222 107.901 22.6111 107.901 22.4444V16.3888C107.985 14.5277 108.874 12.5555 111.013 12.5555C112.54 12.5555 113.624 13.5833 113.624 15.7777V22.4444C113.624 22.6111 113.735 22.7222 113.901 22.7222H116.513C116.679 22.7222 116.79 22.6111 116.79 22.4444V15.1944C116.79 11.5 114.763 9.36107 111.818 9.36107C109.901 9.36107 108.54 10.1666 107.707 11.4722L107.401 9.97218C107.374 9.80551 107.263 9.6944 107.068 9.6944H105.013C104.846 9.6944 104.735 9.80551 104.735 9.97218V22.4444Z" fill="white"/>
<path d="M131.09 10.0555C131.174 9.83329 131.09 9.6944 130.84 9.6944H128.007C127.868 9.6944 127.757 9.77774 127.702 9.91663L124.368 18.9722L121.007 9.88885C120.979 9.77774 120.84 9.6944 120.702 9.6944H117.868C117.646 9.6944 117.563 9.83329 117.646 10.0555L122.535 22.4722C122.59 22.6388 122.757 22.7222 122.896 22.7222H125.84C126.007 22.7222 126.146 22.6388 126.202 22.4722L131.09 10.0555Z" fill="white"/>
<path d="M134.512 15.1111C134.846 13.5 136.04 12.4166 137.957 12.4166C139.873 12.4166 141.068 13.5 141.401 15.1111H134.512ZM134.568 17.4722H144.429C144.623 17.4722 144.707 17.3611 144.707 17.1944C144.735 11.8888 142.04 9.4444 137.957 9.4444C133.929 9.4444 131.207 12.1666 131.207 16.2222C131.207 20.2777 133.985 23.0277 138.123 23C140.373 23 142.179 22.4166 143.401 21.1111C143.512 20.9722 143.485 20.8055 143.373 20.6944L141.735 19C141.679 18.9444 141.623 18.9166 141.54 18.9166C141.457 18.9166 141.373 18.9444 141.262 19.0277C140.651 19.6111 139.623 20.0277 138.29 20.0555C136.29 20.0555 134.985 19 134.568 17.4722Z" fill="white"/>
<path d="M153.51 13C153.565 13 153.593 13.0277 153.648 13.0277C153.787 13.0277 153.871 12.9444 153.898 12.8333L154.565 10.1111C154.621 9.9444 154.537 9.80552 154.371 9.74996C153.954 9.63885 153.232 9.41663 152.371 9.41663C151.037 9.41663 149.898 9.99996 149.065 10.8333L148.787 9.97218C148.76 9.83329 148.648 9.6944 148.426 9.6944H146.621C146.454 9.6944 146.343 9.80551 146.343 9.97218V22.4444C146.343 22.6111 146.454 22.7222 146.621 22.7222H149.232C149.426 22.7222 149.51 22.6111 149.51 22.4444V14.1944C149.982 13.1944 150.871 12.6111 151.76 12.6111C152.398 12.6111 153.148 12.8333 153.51 13Z" fill="white"/>
<path d="M154.99 21.5555C155.49 21.9444 157.435 22.9722 160.018 22.9722C163.101 23 165.185 21.3888 165.129 18.8055C165.046 16.5 163.49 15.5277 160.601 14.8333C158.935 14.4444 158.129 14.1111 158.101 13.3611C158.101 12.8055 158.879 12.3333 160.046 12.3333C160.212 12.3333 160.351 12.3333 160.518 12.3611C161.879 12.5 162.768 13.0555 163.157 13.2777C163.212 13.3055 163.268 13.3055 163.324 13.3055C163.407 13.3055 163.518 13.25 163.546 13.1666L164.601 11.1666C164.685 11.0277 164.629 10.8611 164.518 10.75C164.074 10.4166 162.435 9.41663 160.185 9.38885C157.24 9.36107 154.851 10.8611 154.962 13.4722C155.018 15.4722 156.324 16.6388 158.962 17.3611C160.768 17.8888 161.962 18.1944 161.962 19.0277C161.962 20 160.185 20.0555 159.546 20.0555C158.074 19.9444 156.935 19.3333 156.351 19C156.296 18.9722 156.24 18.9444 156.185 18.9444C156.101 18.9444 156.018 19 155.962 19.0833L154.907 21.1666C154.824 21.3055 154.851 21.4722 154.99 21.5555Z" fill="white"/>
<path d="M169.312 15.1111C169.645 13.5 170.839 12.4166 172.756 12.4166C174.673 12.4166 175.867 13.5 176.201 15.1111H169.312ZM169.367 17.4722H179.228C179.423 17.4722 179.506 17.3611 179.506 17.1944C179.534 11.8888 176.839 9.4444 172.756 9.4444C168.728 9.4444 166.006 12.1666 166.006 16.2222C166.006 20.2777 168.784 23.0277 172.923 23C175.173 23 176.978 22.4166 178.201 21.1111C178.312 20.9722 178.284 20.8055 178.173 20.6944L176.534 19C176.478 18.9444 176.423 18.9166 176.339 18.9166C176.256 18.9166 176.173 18.9444 176.062 19.0277C175.451 19.6111 174.423 20.0277 173.089 20.0555C171.089 20.0555 169.784 19 169.367 17.4722Z" fill="white"/>
</g>
<defs>
<linearGradient id="paint0_linear" x1="22.8684" y1="9.5" x2="22.8684" y2="23.7514" gradientUnits="userSpaceOnUse">
<stop stop-color="#B66A6A"/>
<stop offset="1" stop-color="#8A4D75"/>
</linearGradient>
<linearGradient id="paint1_linear" x1="16.1105" y1="0" x2="16.1105" y2="32" gradientUnits="userSpaceOnUse">
<stop stop-color="#FCB5AD"/>
<stop offset="1" stop-color="#8A4D75"/>
</linearGradient>
<clipPath id="clip0">
<rect width="179.396" height="32" fill="white" transform="translate(0.110474)"/>
</clipPath>
</defs>
</svg>
