<svg width="180" height="32" viewBox="0 0 180 32" fill="none" xmlns="http://www.w3.org/2000/svg">
<g clip-path="url(#clip0)">
<path d="M31.9279 17.5452C27.5279 25.7452 18.0829 24.0833 13.9996 22.25C11.3996 15.65 21.7496 11 27.2496 9.5L31.9279 17.5452Z" fill="url(#paint0_linear)"/>
<path fill-rule="evenodd" clip-rule="evenodd" d="M31.9262 17.5468C31.975 17.0378 32 16.5218 32 16C32 7.16344 24.8366 0 16 0C7.16344 0 0 7.16344 0 16C0 24.8366 7.16344 32 16 32C16.6925 32 17.3747 31.956 18.0439 31.8707C16.8568 30.2104 16.1582 28.1769 16.1582 25.9802C16.1582 20.3808 20.6974 15.8416 26.2968 15.8416C28.3797 15.8416 30.3158 16.4697 31.9262 17.5468Z" fill="url(#paint1_linear)"/>
<path d="M48.2778 29.0556H50.8889C51.0556 29.0556 51.1667 28.9445 51.1667 28.7779V21.2501C52.0556 22.389 53.3889 23.0279 55.0833 23.0279C59.0278 23.0279 61.6667 20.2779 61.6667 16.2223C61.6667 12.1667 59.0278 9.38897 55.0833 9.38897C53.2222 9.38897 51.8056 10.139 50.8889 11.4723L50.4722 9.94453C50.4167 9.80564 50.3056 9.66675 50.1111 9.66675H48.2778C48.1111 9.66675 48 9.77786 48 9.9723V28.7779C48 28.9445 48.1111 29.0556 48.2778 29.0556ZM51.1944 16.1945C51.1944 14.0279 52.6944 12.5279 54.8889 12.5279C57.0556 12.5279 58.5278 14.0279 58.5278 16.2223C58.5278 18.4167 57.0556 19.8612 54.8889 19.8612C52.6944 19.8612 51.1944 18.389 51.1944 16.1945Z" fill="#443E56"/>
<path d="M66.5015 2.94453C66.5015 2.77786 66.3904 2.66675 66.2237 2.66675H63.6126C63.446 2.66675 63.3349 2.77786 63.3349 2.94453L63.3626 22.4445C63.3626 22.6112 63.4737 22.7223 63.6126 22.7223H66.2515C66.3904 22.7223 66.5015 22.6112 66.5015 22.4445V2.94453Z" fill="#443E56"/>
<path d="M78.4835 22.4445C78.5391 22.6112 78.6502 22.7223 78.8168 22.7223H80.8724C81.0391 22.7223 81.1502 22.6112 81.1502 22.4445V9.9723C81.1502 9.80564 81.0391 9.69453 80.8724 9.69453H78.2891C78.0946 9.69453 77.9835 9.80564 77.9835 9.9723L78.0113 16.0556C77.8724 18.7223 76.4557 20.0279 74.8724 20.0556C73.1224 20.0556 72.0946 19.0279 72.0946 16.639V9.9723C72.0946 9.80564 71.9835 9.69453 71.8168 9.69453H69.2057C69.0391 9.69453 68.9279 9.80564 68.9279 9.9723V17.2223C68.9279 20.9167 70.9002 23.0279 73.8168 23.0556C75.7335 23.0556 77.2057 22.2501 78.1779 20.9723L78.4835 22.4445Z" fill="#443E56"/>
<path d="M89.3637 9.38897C85.4193 9.38897 82.7804 12.1667 82.7804 16.2223C82.7804 20.2779 85.4193 23.0001 89.3637 23.0279C91.1137 23.0279 92.4748 22.3612 93.3637 21.2223V22.2779C93.3637 24.6945 91.9748 26.1667 89.4193 26.1667C87.8359 26.1112 86.5026 25.6112 85.697 25.139C85.6415 25.1112 85.5859 25.0834 85.5304 25.0834C85.447 25.0834 85.3637 25.139 85.3359 25.2223L84.197 27.5279C84.1137 27.6945 84.1415 27.8612 84.3082 27.9445C85.3915 28.5834 87.197 29.3056 89.5859 29.3334C93.697 29.3334 96.5582 26.5834 96.5304 22.3612L96.5026 9.9723C96.5026 9.80564 96.3915 9.69453 96.2248 9.69453H94.4193C94.2804 9.69453 94.1693 9.75008 94.0859 9.9723L93.6137 11.5279C92.6971 10.1667 91.2526 9.38897 89.3637 9.38897ZM85.947 16.1945C85.947 14.0001 87.3915 12.5279 89.5582 12.5279C91.8082 12.5279 93.3359 14.0001 93.3359 16.1945C93.3359 18.389 91.8082 19.8612 89.5582 19.8612C87.3915 19.8612 85.947 18.389 85.947 16.1945Z" fill="#443E56"/>
<path d="M102.142 9.94453C102.142 9.77786 102.031 9.69453 101.864 9.69453H99.2806C99.0862 9.66675 98.975 9.80564 98.975 9.9723V22.4445C98.975 22.6112 99.0862 22.7223 99.2528 22.7223H101.864C102.031 22.7223 102.142 22.6112 102.142 22.4445V9.94453ZM98.5028 5.25008C98.5028 6.4723 99.3362 7.30564 100.558 7.30564C101.808 7.30564 102.586 6.4723 102.586 5.25008C102.586 4.02786 101.808 3.2223 100.558 3.2223C99.3362 3.2223 98.5028 4.02786 98.5028 5.25008Z" fill="#443E56"/>
<path d="M104.624 22.4445C104.624 22.6112 104.735 22.7223 104.902 22.7223H107.513C107.652 22.7223 107.791 22.6112 107.791 22.4445V16.389C107.874 14.5279 108.763 12.5556 110.902 12.5556C112.43 12.5556 113.513 13.5834 113.513 15.7779V22.4445C113.513 22.6112 113.624 22.7223 113.791 22.7223H116.402C116.569 22.7223 116.68 22.6112 116.68 22.4445V15.1945C116.68 11.5001 114.652 9.36119 111.708 9.36119C109.791 9.36119 108.43 10.1667 107.597 11.4723L107.291 9.9723C107.263 9.80564 107.152 9.69453 106.958 9.69453H104.902C104.735 9.69453 104.624 9.80564 104.624 9.9723V22.4445Z" fill="#443E56"/>
<path d="M130.98 10.0556C131.063 9.83342 130.98 9.69453 130.73 9.69453H127.897C127.758 9.69453 127.647 9.77786 127.591 9.91675L124.258 18.9723L120.897 9.88897C120.869 9.77786 120.73 9.69453 120.591 9.69453H117.758C117.536 9.69453 117.452 9.83342 117.536 10.0556L122.424 22.4723C122.48 22.639 122.647 22.7223 122.786 22.7223H125.73C125.897 22.7223 126.036 22.639 126.091 22.4723L130.98 10.0556Z" fill="#443E56"/>
<path d="M134.402 15.1112C134.735 13.5001 135.93 12.4167 137.846 12.4167C139.763 12.4167 140.957 13.5001 141.291 15.1112H134.402ZM134.457 17.4723H144.319C144.513 17.4723 144.596 17.3612 144.596 17.1945C144.624 11.889 141.93 9.44453 137.846 9.44453C133.819 9.44453 131.096 12.1667 131.096 16.2223C131.096 20.2779 133.874 23.0279 138.013 23.0001C140.263 23.0001 142.069 22.4167 143.291 21.1112C143.402 20.9723 143.374 20.8056 143.263 20.6945L141.624 19.0001C141.569 18.9445 141.513 18.9167 141.43 18.9167C141.346 18.9167 141.263 18.9445 141.152 19.0279C140.541 19.6112 139.513 20.0279 138.18 20.0556C136.18 20.0556 134.874 19.0001 134.457 17.4723Z" fill="#443E56"/>
<path d="M153.399 13.0001C153.455 13.0001 153.482 13.0279 153.538 13.0279C153.677 13.0279 153.76 12.9445 153.788 12.8334L154.455 10.1112C154.51 9.94453 154.427 9.80564 154.26 9.75008C153.844 9.63897 153.121 9.41675 152.26 9.41675C150.927 9.41675 149.788 10.0001 148.955 10.8334L148.677 9.9723C148.649 9.83342 148.538 9.69453 148.316 9.69453H146.51C146.344 9.69453 146.232 9.80564 146.232 9.9723V22.4445C146.232 22.6112 146.344 22.7223 146.51 22.7223H149.121C149.316 22.7223 149.399 22.6112 149.399 22.4445V14.1945C149.871 13.1945 150.76 12.6112 151.649 12.6112C152.288 12.6112 153.038 12.8334 153.399 13.0001Z" fill="#443E56"/>
<path d="M154.88 21.5556C155.38 21.9445 157.324 22.9723 159.908 22.9723C162.991 23.0001 165.074 21.389 165.019 18.8056C164.935 16.5001 163.38 15.5279 160.491 14.8334C158.824 14.4445 158.019 14.1112 157.991 13.3612C157.991 12.8056 158.769 12.3334 159.935 12.3334C160.102 12.3334 160.241 12.3334 160.408 12.3612C161.769 12.5001 162.658 13.0556 163.046 13.2779C163.102 13.3056 163.158 13.3056 163.213 13.3056C163.296 13.3056 163.408 13.2501 163.435 13.1667L164.491 11.1667C164.574 11.0279 164.519 10.8612 164.408 10.7501C163.963 10.4167 162.324 9.41675 160.074 9.38897C157.13 9.36119 154.741 10.8612 154.852 13.4723C154.908 15.4723 156.213 16.639 158.852 17.3612C160.658 17.889 161.852 18.1945 161.852 19.0279C161.852 20.0001 160.074 20.0556 159.435 20.0556C157.963 19.9445 156.824 19.3334 156.241 19.0001C156.185 18.9723 156.13 18.9445 156.074 18.9445C155.991 18.9445 155.908 19.0001 155.852 19.0834L154.796 21.1667C154.713 21.3056 154.741 21.4723 154.88 21.5556Z" fill="#443E56"/>
<path d="M169.201 15.1112C169.535 13.5001 170.729 12.4167 172.646 12.4167C174.562 12.4167 175.757 13.5001 176.09 15.1112H169.201ZM169.257 17.4723H179.118C179.312 17.4723 179.396 17.3612 179.396 17.1945C179.423 11.889 176.729 9.44453 172.646 9.44453C168.618 9.44453 165.896 12.1667 165.896 16.2223C165.896 20.2779 168.673 23.0279 172.812 23.0001C175.062 23.0001 176.868 22.4167 178.09 21.1112C178.201 20.9723 178.173 20.8056 178.062 20.6945L176.423 19.0001C176.368 18.9445 176.312 18.9167 176.229 18.9167C176.146 18.9167 176.062 18.9445 175.951 19.0279C175.34 19.6112 174.312 20.0279 172.979 20.0556C170.979 20.0556 169.673 19.0001 169.257 17.4723Z" fill="#443E56"/>
</g>
<defs>
<linearGradient id="paint0_linear" x1="22.7579" y1="9.5" x2="22.7579" y2="23.7514" gradientUnits="userSpaceOnUse">
<stop stop-color="#B66A6A"/>
<stop offset="1" stop-color="#8A4D75"/>
</linearGradient>
<linearGradient id="paint1_linear" x1="16" y1="0" x2="16" y2="32" gradientUnits="userSpaceOnUse">
<stop stop-color="#FCB5AD"/>
<stop offset="1" stop-color="#8A4D75"/>
</linearGradient>
<clipPath id="clip0">
<rect width="179.396" height="32" fill="white"/>
</clipPath>
</defs>
</svg>
